#!OML:ASF F:\VICON\USERDATA\INSTALL\rory3\rory3.ASF
:FULLY-SPECIFIED
:DEGREES
1068
root 4.70131 17.3892 2.68182 6.31963 -12.4448 -6.10564
lowerback 11.0027 0.0408009 4.61628
upperback 4.3102 0.539873 1.48809
thorax -1.6376 0.284043 -1.11817
lowerneck -12.0865 -0.388917 -2.49571
upperneck 35.3842 0.208464 -0.703904
head 14.0933 -0.390601 0.175415
rclavicle 5.76476e-015 -1.04362e-014
rhumerus -31.8663 -4.64142 -16.0721
rradius 34.6219
rwrist 10.4271
rhand -20.9956 -44.1165
rfingers 7.12502
rthumb 5.37861 -74.0282
lclavicle 5.76476e-015 -1.04362e-014
lhumerus -29.516 2.89692 10.9082
lradius 29.624
lwrist 10.2933
lhand -24.3655 -32.2586
lfingers 7.12502
lthumb 2.12437 -2.28944
rfemur -97.4564 1.61879 28.8738
rtibia 97.5676
rfoot 47.3823 3.47809
rtoes -6.69757
lfemur -18.4559 1.46949 -23.5408
ltibia 30.6496
lfoot -14.8995 8.22275
ltoes 10.7062
1069
root 4.70083 17.3991 2.67554 6.37309 -12.4265 -6.16418
lowerback 10.9768 0.0551169 4.68073
upperback 4.30312 0.564576 1.50835
thorax -1.62881 0.296772 -1.13609
lowerneck -12.0374 -0.412074 -2.458
upperneck 35.3456 0.186585 -0.772008
head 14.0651 -0.403094 0.138171
rclavicle -2.05742e-014 1.88845e-015
rhumerus -31.9089 -4.62525 -16.0413
rradius 34.6731
rwrist 10.3037
rhand -20.8155 -44.2753
rfingers 7.12502
rthumb 5.55248 -74.1825
lclavicle -2.05742e-014 1.88845e-015
lhumerus -29.4273 3.06622 10.8933
lradius 29.5798
lwrist 10.1521
lhand -24.0901 -32.1225
lfingers 7.12502
lthumb 2.39037 -2.15612
rfemur -97.4 1.64839 28.9353
rtibia 97.4293
rfoot 47.4887 3.29154
rtoes -6.25992
lfemur -18.7903 1.31253 -23.379
ltibia 30.8112
lfoot -15.0139 7.88533
ltoes 13.2596
1070
root 4.69943 17.4018 2.67231 6.40463 -12.4022 -6.24308
lowerback 10.9407 0.0610275 4.78645
upperback 4.34299 0.579068 1.51133
thorax -1.56511 0.306544 -1.19352
lowerneck -12.1316 -0.425058 -2.41346
upperneck 35.4084 0.161888 -0.778182
head 14.1151 -0.40941 0.123662
rclavicle -8.49804e-015 1.78906e-015
rhumerus -32.038 -4.57209 -16.0712
rradius 34.8534
rwrist 10.1448
rhand -20.8641 -44.3936
rfingers 7.12502
rthumb 5.50553 -74.3021
lclavicle -8.49804e-015 1.78906e-015
lhumerus -29.3744 3.1834 10.8757
lradius 29.5367
lwrist 10.1098
lhand -23.8939 -31.9585
lfingers 7.12502
lthumb 2.57986 -1.99435
rfemur -97.3573 1.67285 29.0267
rtibia 97.3496
rfoot 47.5332 3.22927
rtoes -5.85739
lfemur -18.9293 1.2398 -23.2537
ltibia 30.8934
lfoot -15.0021 7.84856
ltoes 14.1759
1071
root 4.69772 17.3974 2.66817 6.40655 -12.3868 -6.26228
lowerback 10.9488 0.0623638 4.8343
upperback 4.36991 0.584653 1.50021
thorax -1.54026 0.310626 -1.23245
lowerneck -12.143 -0.436896 -2.45634
upperneck 35.41 0.126222 -0.691679
head 14.1184 -0.418846 0.16086
rclavicle 1.31198e-014 5.26779e-015
rhumerus -32.1424 -4.44914 -16.1213
rradius 35.0478
rwrist 9.9037
rhand -21.016 -44.4445
rfingers 7.12502
rthumb 5.35893 -74.3567
lclavicle 1.31198e-014 5.26779e-015
lhumerus -29.3349 3.17482 10.8736
lradius 29.4321
lwrist 10.1889
lhand -23.8004 -32.0685
lfingers 7.12502
lthumb 2.67009 -2.10544
rfemur -97.3738 1.67732 29.0691
rtibia 97.3096
rfoot 47.5841 3.26411
rtoes -5.59106
lfemur -18.9188 1.23212 -23.2477
ltibia 30.939
lfoot -14.9212 7.98899
ltoes 13.2277
1072
root 4.69564 17.3902 2.6629 6.43716 -12.4225 -6.24833
lowerback 10.9852 0.0792466 4.81186
upperback 4.3525 0.60753 1.49249
thorax -1.5773 0.320859 -1.23098
lowerneck -12.1311 -0.443064 -2.51641
upperneck 35.3593 0.100741 -0.600403
head 14.0926 -0.424855 0.204789
rclavicle -1.10822e-014 -6.36111e-015
rhumerus -32.1701 -4.37278 -16.1409
rradius 35.1066
rwrist 9.87007
rhand -21.1315 -44.4011
rfingers 7.12502
rthumb 5.24733 -74.3162
lclavicle -1.10822e-014 -6.36111e-015
lhumerus -29.2459 3.15444 10.8939
lradius 29.3929
lwrist 10.2902
lhand -24.2327 -31.7743
lfingers 7.12502
lthumb 2.25266 -1.80648
rfemur -97.4779 1.73613 29.0589
rtibia 97.2896
rfoot 47.6939 3.17773
rtoes -5.09584
lfemur -18.8333 1.37073 -23.3166
ltibia 30.8888
lfoot -14.8135 8.17169
ltoes 11.1081
1073
root 4.69509 17.3883 2.66183 6.44644 -12.4344 -6.20585
lowerback 11.0044 0.0765417 4.76879
upperback 4.32381 0.601855 1.4812
thorax -1.61855 0.3166 -1.21818
lowerneck -12.0954 -0.444216 -2.5633
upperneck 35.3438 0.0828758 -0.524068
head 14.0775 -0.428531 0.241314
rclavicle 6.11263e-015 -7.95139e-015
rhumerus -32.1654 -4.38197 -16.1424
rradius 35.0578
rwrist 10.0462
rhand -21.3584 -44.0253
rfingers 7.12502
rthumb 5.02832 -73.9456
lclavicle 6.11263e-015 -7.95139e-015
lhumerus -29.2278 3.11937 10.9001
lradius 29.5079
lwrist 10.5026
lhand -24.7853 -30.2836
lfingers 7.12502
lthumb 1.71897 -0.310807
rfemur -97.5312 1.73888 29.0014
rtibia 97.2853
rfoot 47.7806 2.88552
rtoes -4.59642
lfemur -18.7592 1.42396 -23.3899
ltibia 30.8289
lfoot -14.8119 8.28915
ltoes 9.67986
1074
root 4.69623 17.3947 2.6607 6.46114 -12.412 -6.20218
lowerback 11.0557 0.052372 4.79649
upperback 4.26554 0.578521 1.4723
thorax -1.70815 0.302753 -1.24078
lowerneck -11.9881 -0.44031 -2.58959
upperneck 35.3404 0.0797119 -0.492709
head 14.0517 -0.429372 0.258248
rclavicle 4.62174e-015 9.34288e-015
rhumerus -32.1283 -4.47133 -16.1299
rradius 34.9425
rwrist 10.2724
rhand -21.6029 -43.5524
rfingers 7.12502
rthumb 4.79219 -73.4782
lclavicle 4.62174e-015 9.34288e-015
lhumerus -29.2758 3.02737 10.89
lradius 29.525
lwrist 10.4895
lhand -24.8174 -30.3772
lfingers 7.12502
lthumb 1.6879 -0.404137
rfemur -97.4971 1.69113 29.0018
rtibia 97.2285
rfoot 47.7472 2.89095
rtoes -4.9051
lfemur -18.8401 1.30263 -23.3504
ltibia 30.8154
lfoot -14.9028 8.13732
ltoes 10.8483
1075
root 4.69689 17.4029 2.65784 6.48743 -12.3881 -6.22264
lowerback 11.0594 0.038068 4.84717
upperback 4.2529 0.565435 1.46126
thorax -1.72317 0.296245 -1.27913
lowerneck -11.9799 -0.408491 -2.48007
upperneck 35.3557 0.130311 -0.588374
head 14.0562 -0.406036 0.207815
rclavicle 4.23908e-014 3.21037e-014
rhumerus -32.094 -4.54369 -16.1399
rradius 34.8831
rwrist 10.4098
rhand -21.7297 -43.4011
rfingers 7.12502
rthumb 4.66977 -73.3296
lclavicle 4.23908e-014 3.21037e-014
lhumerus -29.2875 2.95841 10.8911
lradius 29.391
lwrist 10.2823
lhand -24.5381 -32.8017
lfingers 7.12502
lthumb 1.95769 -2.8309
rfemur -97.4426 1.66573 29.0304
rtibia 97.1489
rfoot 47.6687 3.04231
rtoes -5.36544
lfemur -18.9899 1.15655 -23.2592
ltibia 30.8235
lfoot -14.9276 7.84852
ltoes 13.9763
1076
root 4.69477 17.4069 2.65413 6.43909 -12.3609 -6.2206
lowerback 11.1022 0.0250755 4.81987
upperback 4.2871 0.546582 1.46163
thorax -1.71232 0.287285 -1.26128
lowerneck -12.0463 -0.375028 -2.42152
upperneck 35.4168 0.167788 -0.592834
head 14.0983 -0.38375 0.20104
rclavicle 8.54774e-015 2.05742e-014
rhumerus -32.0632 -4.49081 -16.2068
rradius 34.935
rwrist 10.3771
rhand -21.8432 -43.2547
rfingers 7.12502
rthumb 4.56019 -73.1856
lclavicle 8.54774e-015 2.05742e-014
lhumerus -29.3189 2.91285 10.8983
lradius 29.4071
lwrist 10.3012
lhand -24.2031 -33.9444
lfingers 7.12502
lthumb 2.2812 -3.97682
rfemur -97.3532 1.6477 29.0372
rtibia 97.1155
rfoot 47.6865 2.87584
rtoes -5.19382
lfemur -18.9889 1.14596 -23.2327
ltibia 30.8203
lfoot -14.8622 7.72301
ltoes 14.8015
1077
root 4.69153 17.4072 2.65444 6.36795 -12.3279 -6.24398
lowerback 11.1574 -0.00619727 4.83063
upperback 4.29378 0.509893 1.474
thorax -1.73751 0.268564 -1.25028
lowerneck -12.0333 -0.373213 -2.48223
upperneck 35.4426 0.156243 -0.509532
head 14.1071 -0.386405 0.24362
rclavicle 1.50579e-014 9.64106e-015
rhumerus -32.0345 -4.36988 -16.2803
rradius 34.9941
rwrist 10.3214
rhand -22.0035 -42.9128
rfingers 7.12502
rthumb 4.40538 -72.8469
lclavicle 1.50579e-014 9.64106e-015
lhumerus -29.4092 2.79315 10.9147
lradius 29.5058
lwrist 10.3813
lhand -24.2651 -33.3783
lfingers 7.12502
lthumb 2.22135 -3.41015
rfemur -97.2628 1.62124 29.0806
rtibia 97.1254
rfoot 47.7041 2.74643
rtoes -4.90579
lfemur -18.8174 1.25226 -23.2311
ltibia 30.7706
lfoot -14.8056 7.84327
ltoes 13.3524
1078
root 4.69117 17.4084 2.65907 6.36173 -12.2403 -6.26169
lowerback 11.077 -0.0592326 4.92477
upperback 4.30788 0.443691 1.45985
thorax -1.68131 0.237927 -1.30912
lowerneck -12.0424 -0.345617 -2.35984
upperneck 35.432 0.216405 -0.658707
head 14.104 -0.364159 0.170657
rclavicle -1.64991e-014 -3.18055e-015
rhumerus -32.0122 -4.31078 -16.3475
rradius 35.0137
rwrist 10.3037
rhand -22.019 -42.8378
rfingers 7.12502
rthumb 4.39042 -72.7722
lclavicle -1.64991e-014 -3.18055e-015
lhumerus -29.4455 2.64301 10.9397
lradius 29.4775
lwrist 10.4911
lhand -24.6232 -32.1451
lfingers 7.12502
lthumb 1.87551 -2.17362
rfemur -97.257 1.52628 29.107
rtibia 97.1715
rfoot 47.62 2.85776
rtoes -4.85623
lfemur -18.6762 1.24345 -23.23
ltibia 30.6656
lfoot -14.7499 7.96256
ltoes 11.9071
1079
root 4.69224 17.4117 2.6633 6.36253 -12.2268 -6.26386
lowerback 10.9821 -0.0698907 5.00393
upperback 4.36552 0.42796 1.4183
thorax -1.56887 0.234253 -1.39401
lowerneck -12.1648 -0.307322 -2.13503
upperneck 35.4647 0.288034 -0.861075
head 14.1463 -0.330952 0.0594887
rclavicle -2.73826e-014 1.93815e-014
rhumerus -31.9879 -4.39251 -16.4132
rradius 34.9725
rwrist 10.241
rhand -21.9485 -43.04
rfingers 7.12502
rthumb 4.45848 -72.9731
lclavicle -2.73826e-014 1.93815e-014
lhumerus -29.3515 2.71586 10.9156
lradius 29.3539
lwrist 10.6338
lhand -24.5231 -30.6396
lfingers 7.12502
lthumb 1.97211 -0.668995
rfemur -97.2517 1.48575 29.1097
rtibia 97.2102
rfoot 47.5135 3.15538
rtoes -5.15277
lfemur -18.6088 1.20999 -23.2217
ltibia 30.552
lfoot -14.7371 7.92966
ltoes 11.9248
1080
root 4.69157 17.408 2.66305 6.38534 -12.239 -6.26774
lowerback 10.9425 -0.0636476 5.04422
upperback 4.39296 0.435657 1.38542
thorax -1.51732 0.240181 -1.45132
lowerneck -12.2861 -0.314814 -2.08782
upperneck 35.5645 0.256003 -0.826162
head 14.2194 -0.335328 0.059739
rclavicle 2.12203e-014 -1.95803e-014
rhumerus -31.9997 -4.46434 -16.4696
rradius 34.9308
rwrist 10.1284
rhand -21.881 -43.1553
rfingers 7.12502
rthumb 4.52366 -73.087
lclavicle 2.12203e-014 -1.95803e-014
lhumerus -29.2694 2.85875 10.868
lradius 29.3352
lwrist 10.7575
lhand -24.3336 -30.6368
lfingers 7.12502
lthumb 2.15518 -0.667978
rfemur -97.3136 1.49562 29.1227
rtibia 97.2605
rfoot 47.4953 3.4124
rtoes -5.5877
lfemur -18.5644 1.27789 -23.2367
ltibia 30.4978
lfoot -14.7406 7.97525
ltoes 10.996
